<svg width="18" height="18" viewBox="0 0 18 18" fill="none" xmlns="http://www.w3.org/2000/svg">
<path fill-rule="evenodd" clip-rule="evenodd" d="M10.416 1.417C10.2301 1.23099 10.0093 1.08343 9.76636 0.982749C9.52339 0.882074 9.26298 0.830256 8.99998 0.830256C8.73699 0.830256 8.47657 0.882074 8.2336 0.982749C7.99064 1.08343 7.7699 1.23099 7.58398 1.417L1.41598 7.584C1.22982 7.76993 1.08213 7.99074 0.981365 8.2338C0.8806 8.47685 0.828735 8.73739 0.828735 9.0005C0.828735 9.26361 0.8806 9.52415 0.981365 9.7672C1.08213 10.0103 1.22982 10.2311 1.41598 10.417L7.58398 16.584C7.7699 16.77 7.99064 16.9176 8.2336 17.0183C8.47657 17.1189 8.73699 17.1707 8.99998 17.1707C9.26298 17.1707 9.52339 17.1189 9.76636 17.0183C10.0093 16.9176 10.2301 16.77 10.416 16.584L16.584 10.417C16.7701 10.2311 16.9178 10.0103 17.0186 9.7672C17.1194 9.52415 17.1712 9.26361 17.1712 9.0005C17.1712 8.73739 17.1194 8.47685 17.0186 8.2338C16.9178 7.99074 16.7701 7.76993 16.584 7.584L10.416 1.417Z" fill="white"/>
<path fill-rule="evenodd" clip-rule="evenodd" d="M9 11C8.73478 11 8.48043 10.8946 8.29289 10.7071C8.10536 10.5196 8 10.2652 8 10V5C8 4.73478 8.10536 4.48043 8.29289 4.29289C8.48043 4.10536 8.73478 4 9 4C9.26522 4 9.51957 4.10536 9.70711 4.29289C9.89464 4.48043 10 4.73478 10 5V10C10 10.2652 9.89464 10.5196 9.70711 10.7071C9.51957 10.8946 9.26522 11 9 11ZM9 14C8.73478 14 8.48043 13.8946 8.29289 13.7071C8.10536 13.5196 8 13.2652 8 13C8 12.7348 8.10536 12.4804 8.29289 12.2929C8.48043 12.1054 8.73478 12 9 12C9.26522 12 9.51957 12.1054 9.70711 12.2929C9.89464 12.4804 10 12.7348 10 13C10 13.2652 9.89464 13.5196 9.70711 13.7071C9.51957 13.8946 9.26522 14 9 14Z" fill="#DE350B"/>
</svg>
