<svg aria-hidden="true" role="img" focusable="false" width="19" height="19" viewBox="0 0 19 19" fill="none" xmlns="http://www.w3.org/2000/svg">
    <path d="M16.9643 1.35714C17.3375 1.35714 17.6429 1.6625 17.6429 2.03571V16.9643C17.6429 17.3375 17.3375 17.6429 16.9643 17.6429H2.03571C1.6625 17.6429 1.35714 17.3375 1.35714 16.9643V2.03571C1.35714 1.6625 1.6625 1.35714 2.03571 1.35714H16.9643ZM16.9643 0H2.03571C0.91183 0 0 0.91183 0 2.03571V16.9643C0 18.0882 0.91183 19 2.03571 19H16.9643C18.0882 19 19 18.0882 19 16.9643V2.03571C19 0.91183 18.0882 0 16.9643 0ZM14.4196 8.73661H10.2634V4.58036C10.2634 4.30045 10.0344 4.07143 9.75446 4.07143H9.24553C8.96562 4.07143 8.73661 4.30045 8.73661 4.58036V8.73661H4.58036C4.30045 8.73661 4.07143 8.96562 4.07143 9.24553V9.75446C4.07143 10.0344 4.30045 10.2634 4.58036 10.2634H8.73661V14.4196C8.73661 14.6996 8.96562 14.9286 9.24553 14.9286H9.75446C10.0344 14.9286 10.2634 14.6996 10.2634 14.4196V10.2634H14.4196C14.6996 10.2634 14.9286 10.0344 14.9286 9.75446V9.24553C14.9286 8.96562 14.6996 8.73661 14.4196 8.73661Z" fill="white"/>
</svg>
