<svg width="20" height="20" viewBox="0 0 20 20" fill="none" xmlns="http://www.w3.org/2000/svg">
<path d="M10 20C15.5228 20 20 15.5228 20 10C20 4.47715 15.5228 0 10 0C4.47715 0 0 4.47715 0 10C0 15.5228 4.47715 20 10 20Z" fill="white"/>
<path fill-rule="evenodd" clip-rule="evenodd" d="M7.70702 9.293C7.61477 9.19749 7.50443 9.1213 7.38242 9.0689C7.26042 9.01649 7.1292 8.9889 6.99642 8.98775C6.86364 8.98659 6.73196 9.0119 6.60907 9.06218C6.48617 9.11246 6.37452 9.18671 6.28063 9.2806C6.18673 9.3745 6.11248 9.48615 6.0622 9.60904C6.01192 9.73194 5.98662 9.86362 5.98777 9.9964C5.98892 10.1292 6.01651 10.2604 6.06892 10.3824C6.12133 10.5044 6.19751 10.6148 6.29302 10.707L8.29302 12.707C8.48055 12.8945 8.73486 12.9998 9.00002 12.9998C9.26518 12.9998 9.51949 12.8945 9.70702 12.707L13.707 8.707C13.8025 8.61475 13.8787 8.50441 13.9311 8.3824C13.9835 8.2604 14.0111 8.12918 14.0123 7.9964C14.0134 7.86362 13.9881 7.73194 13.9378 7.60904C13.8876 7.48615 13.8133 7.3745 13.7194 7.2806C13.6255 7.18671 13.5139 7.11246 13.391 7.06218C13.2681 7.0119 13.1364 6.98659 13.0036 6.98775C12.8708 6.9889 12.7396 7.01649 12.6176 7.0689C12.4956 7.1213 12.3853 7.19749 12.293 7.293L9.00002 10.586L7.70702 9.293V9.293Z" fill="#00875A"/>
</svg>
