<svg width="260" height="260" viewBox="0 0 260 260" fill="none" xmlns="http://www.w3.org/2000/svg">
<rect x="10" y="10" width="240" height="240" rx="8" fill="#0052CC"/>
<path d="M60 180.002C60 187.958 63.1607 195.588 68.7868 201.214C74.4129 206.839 82.0435 210 90 210H170C177.956 210 185.587 206.839 191.213 201.214C196.839 195.588 200 187.958 200 180.002V170.002H60V180.002ZM205 140.004H175V130.005H195C196.326 130.005 197.598 129.478 198.536 128.54C199.473 127.603 200 126.331 200 125.005V120.005C200 118.679 199.473 117.408 198.536 116.47C197.598 115.532 196.326 115.006 195 115.006H170C167.348 115.006 164.804 116.059 162.929 117.934C161.054 119.81 160 122.353 160 125.005V140.004H140V80.0076C140 77.3555 141.054 74.8121 142.929 72.9369C144.804 71.0616 147.348 70.0081 150 70.0081C152.652 70.0081 155.196 71.0616 157.071 72.9369C158.946 74.8121 160 77.3555 160 80.0076V85.0073C160 86.3333 160.527 87.605 161.464 88.5426C162.402 89.4802 163.674 90.007 165 90.007H175C176.326 90.007 177.598 89.4802 178.536 88.5426C179.473 87.605 180 86.3333 180 85.0073V80.0076C179.994 75.5623 179.002 71.1737 177.095 67.1583C175.188 63.1428 172.413 59.6004 168.972 56.7865C165.53 53.9726 161.507 51.9573 157.193 50.8859C152.878 49.8144 148.38 49.7136 144.022 50.5905C129.778 53.356 120 66.6833 120 81.1919V140.004H100V125.005C100 122.353 98.9464 119.81 97.0711 117.934C95.1957 116.059 92.6522 115.006 90 115.006H65C63.6739 115.006 62.4021 115.532 61.4645 116.47C60.5268 117.408 60 118.679 60 120.005V125.005C60 126.331 60.5268 127.603 61.4645 128.54C62.4021 129.478 63.6739 130.005 65 130.005H85V140.004H55C53.6739 140.004 52.4021 140.531 51.4645 141.468C50.5268 142.406 50 143.678 50 145.004V155.003C50 156.329 50.5268 157.601 51.4645 158.539C52.4021 159.476 53.6739 160.003 55 160.003H205C206.326 160.003 207.598 159.476 208.536 158.539C209.473 157.601 210 156.329 210 155.003V145.004C210 143.678 209.473 142.406 208.536 141.468C207.598 140.531 206.326 140.004 205 140.004Z" fill="white"/>
</svg>
